<svg xmlns="http://www.w3.org/2000/svg" viewBox="0 0 20 20" style="enable-background:new 0 0 20 20" xml:space="preserve"><path style="fill:#4d4d4d" d="M19.7 1.6c.1 0 .2.1.3.2v3.9c0 .1-.1.3-.2.3-.1.1-.3 0-.4-.1l-1.1-1.1-.1-.1c-.1 0-.2.1-.2.2-1.1 1-2.1 2-3.2 3-.8.7-1.5 1.4-2.2 2.1-.7.7-1.4 1.3-2.1 2-.3.3-.8.3-1.1 0-.7-.7-1.5-1.4-2.2-2-.7-.8-1.4-1.4-2.2-2.1l-.1-.1c-.1.1-.2.3-.3.4-.7.7-1.5 1.4-2.2 2.1l-1.1 1.1c-.2.2-.4.2-.7 0l-.5-.5c-.2-.2-.2-.4 0-.6.7-.7 1.4-1.3 2.1-2 .7-.7 1.4-1.4 2.2-2.1.3-.3.8-.3 1.1 0 1 .9 2 1.9 3 2.8.5.4.9.8 1.4 1.3.1.1.1 0 .1 0 1.1-1.1 2.3-2.2 3.4-3.3 1.1-1.1 2.3-2.2 3.4-3.2l.3-.3-.4-.4-1-1c-.2-.2-.2-.5.2-.6 1.3.1 2.5.1 3.8.1z"/><path style="fill:#4d4d4d" d="M18.1 6.5v11.3c0 .4-.3.6-.6.6h-1.8c-.4 0-.6-.3-.6-.6V9.3c.3-.3.6-.6 1-.9.6-.6 1.3-1.3 2-1.9zM5 9.6v8.2c0 .4-.3.6-.6.6H2.6c-.4 0-.6-.3-.6-.7v-5.3c.2-.2.5-.4.7-.6.7-.7 1.4-1.4 2.3-2.2-.1 0 0 0 0 0zm8.7 1c0 .1 0 .1 0 0v7.2c0 .4-.3.6-.6.6h-1.8c-.4 0-.7-.3-.7-.7v-4.5c.4-.1.6-.4.9-.6.8-.6 1.5-1.3 2.2-2 0 .1 0 0 0 0zm-7.4.1.3.3c.7.6 1.4 1.3 2 1.9.2.2.5.3.7.4.1 0 .1 0 .1.1v4.4c0 .4-.3.6-.6.6H7c-.4 0-.6-.3-.6-.6-.1-2.3-.1-4.7-.1-7.1 0 .1 0 .1 0 0z"/></svg>