<svg xmlns="http://www.w3.org/2000/svg" viewBox="0 0 21 21" style="enable-background:new 0 0 21 21" xml:space="preserve"><path d="M4.1 1.5v1.6c0 .3.1.5.3.8.2.3.5.5.8.5.8.2 1.4-.1 1.8-.7.1-.2.1-.4.1-.5V1.5h2.3v1.6c0 .6.3 1 .9 1.2.9.4 1.7-.1 2-.9.1-.2.1-.3.1-.5V1.5h2.3v1.6c0 .5.3.8.6 1 .4.3.8.3 1.2.2.7-.2 1.2-.8 1.1-1.4V1.4c.4 0 .7.1 1.1.2.9.4 1.5 1 1.8 1.9.1.2.1.3.1.5V18.4c0 .3-.2.6-.3.9-.4.7-1 1.2-1.8 1.4-.3.3-.6.3-.8.3H3.3c-1.2 0-2.1-.7-2.6-1.8-.1-.3-.2-.5-.2-.8-.1-2.4 0-4.9 0-7.3v-6c0-.4 0-.8.1-1.2 0-.3.1-.5.3-.8.2-.6.6-1.1 1.3-1.4.3-.1.6-.2 1-.2h.9zm-2.2 6v10.6c0 .2 0 .5.2.7.3.5.7.8 1.3.8H18.2c.5-.2.9-.5 1-1V7.7c-5.8-.2-11.6-.2-17.3-.2z"/><path d="M11.6 1.9V3c0 .3-.1.5-.4.7-.3.1-.6.1-.8-.2-.1-.1-.1-.2-.2-.3V.5c.1-.3.2-.5.5-.5.3-.1.5 0 .7.2.1.1.2.2.2.4v1.3zM6.3 1.9v1.2c0 .4-.4.7-.9.6-.3-.1-.5-.3-.5-.6V.6c.1-.3.3-.5.6-.6.3 0 .6.1.7.4.1.2.1.3.1.5v1zM16.9 1.9v1.2c0 .5-.6.8-1.1.6-.2-.1-.3-.3-.4-.6V.8c0-.4.2-.7.6-.7.4-.1.8.2.8.6.1.4.1.8.1 1.2zM12.4 17.2h-.8c-.3 0-.5-.2-.6-.5-.1-.3-.1-.7 0-1.1 0-.3.3-.6.7-.6h1.6c.3 0 .6.2.6.5 0 .4.1.8 0 1.2 0 .3-.3.5-.5.5h-1zM16.1 11.2h-.9c-.3 0-.6-.2-.6-.5v-.9c0-.3.2-.5.4-.6.2-.2.4-.2.5-.2h1.4c.4 0 .6.3.7.7v.9c0 .3-.3.6-.6.6h-.9zM12.4 11.2h-.9c-.3 0-.5-.2-.6-.5-.1-.4-.1-.7 0-1.1.1-.3.4-.6.7-.6h1.6c.3 0 .6.2.7.7v.9c0 .3-.2.6-.6.6h-.9zM4.8 17.2H4c-.3 0-.5-.2-.6-.5-.1-.4-.1-.7 0-1.1.1-.3.3-.6.7-.6h1.6c.3 0 .6.2.6.6v1.1c0 .3-.3.5-.5.5h-1zM8.6 17.2h-.8c-.3 0-.6-.2-.6-.6v-1c0-.3.3-.6.7-.6h1.6c.3 0 .6.2.7.6v1.1c0 .2-.3.4-.5.5H8.6zM8.6 11.2h-.9c-.3 0-.5-.2-.6-.5-.1-.4-.1-.7 0-1.1.1-.3.4-.6.7-.6h1.6c.4 0 .7.2.7.7v.9c0 .3-.3.6-.6.6h-.9zM16.1 14.2h-.7c-.4 0-.7-.2-.7-.6 0-.3-.1-.7 0-1 .1-.3.3-.5.6-.5H17c.3 0 .6.3.6.6v.9c0 .4-.3.6-.7.6h-.8zM4.9 14.2h-.8c-.3 0-.6-.2-.6-.5-.1-.4-.1-.7 0-1.1-.1-.2.2-.6.5-.6h1.7c.3 0 .6.3.6.6v1c0 .3-.3.5-.6.6h-.8zM12.4 14.2h-.7c-.4 0-.7-.3-.7-.7v-.8c0-.4.3-.7.6-.7h1.7c.3 0 .6.2.6.6v1.1c0 .4-.4.6-.6.6-.4-.1-.7-.1-.9-.1zM8.6 14.2h-.9c-.3 0-.4-.2-.5-.4-.1-.4-.1-.8 0-1.1 0-.4.3-.7.6-.7h1.7c.3 0 .6.3.6.6v1c0 .4-.3.6-.7.6h-.8z"/></svg>