<svg xmlns="http://www.w3.org/2000/svg" viewBox="0 0 15 15" style="enable-background:new 0 0 15 15" xml:space="preserve"><path d="M7.2 15H7c-.7 0-1.3-.2-2-.4-1.2-.4-2.3-1.1-3.1-2.1-.5-.6-.9-1.3-1.3-2H1.9c.4.7.8 1.3 1.4 1.8.6.5 1.3.9 2.1 1.2l1.2.3c.6.1 1.2.1 1.9 0 1.1-.2 2-.5 2.9-1.2 1.1-.8 1.8-1.9 2.2-3.1.3-.8.3-1.6.3-2.4-.1-1.4-.6-2.6-1.5-3.6s-2-1.7-3.3-2c-.7-.3-1.2-.4-1.8-.3-1.5 0-2.8.5-3.9 1.5-.7.5-1.2 1.2-1.5 1.9H.6c.1-.1.1-.3.2-.4C1.5 2.7 2.6 1.6 4 .9 4.7.5 5.4.3 6.2.1c.6-.1 1.3-.1 2-.1 1.3.1 2.6.6 3.7 1.4 1.4 1 2.4 2.4 2.9 4.1.1.5.2 1.1.2 1.7V8c0 .6-.1 1.3-.3 1.9-.5 1.6-1.4 2.9-2.7 3.8-1.2.7-2.5 1.2-4 1.3h-.8z"/><path d="M0 8.1V6.9h8.1V4.6L11 7.5c-1 1-2 1.9-2.9 2.9V8.1H0z"/></svg>