<svg xmlns="http://www.w3.org/2000/svg" viewBox="0 0 24 24" style="enable-background:new 0 0 24 24" xml:space="preserve"><path d="M0 12.6V11.4c.1-1.3.3-2.5.8-3.6C1.9 5 3.6 2.9 6.2 1.5 7.5.8 8.9.3 10.5.1c.2 0 .5-.1.8-.1H12.7c.9 0 1.7.2 2.5.4 3.2 1 5.7 2.9 7.3 5.9.7 1.4 1.2 2.8 1.3 4.3 0 .2 0 .5.1.7v1.3c-.1.6-.1 1.1-.2 1.7-.4 2.1-1.4 4-2.9 5.7-2.8 3.2-7.1 4.6-11.2 3.7-3.5-.7-6.2-2.7-8.1-5.9C.7 16.3.2 14.7 0 13v-.4zm6 2.3c0-.1.1-.1.1-.2.2-.3.4-.5.5-.8.4-.9.6-1.8.6-2.8 0-.8 0-1.5.1-2.3 0-.6 0-1.2.2-1.8.3-.9.7-1.7 1.5-2.3.8-.6 1.7-1 2.8-.6h.4c.5-.1.9-.1 1.4 0 .9.2 1.6.7 2.1 1.4.7.9 1 1.9 1 3 0 .9.1 1.8.1 2.8 0 .9.2 1.8.5 2.6.1.3.3.6.5.8.1.1.2.2.3.4-.1 0-.2.1-.3.1-.4.2-.9.3-1.4.3-.6 0-1.2 0-1.8-.1-.2 0-.2 0-.2.1 0 .3 0 .6.1.9.1.4.2.8.5 1.1.3.3.7.6 1.1.8 1.2.6 2.5 1.1 3.7 1.9h.2c.3-.3.6-.6.8-1 1.5-1.9 2.4-4.1 2.5-6.6 0-1.1 0-2.2-.3-3.2-1-3.8-3.4-6.5-7.1-7.9-1.1-.4-2.2-.6-3.4-.7-1 0-2 0-2.9.3-2.4.6-4.4 1.8-6 3.6C1.2 7.4.3 10.6 1 14.2c.4 2.3 1.5 4.2 3.1 5.8.2.2.1.2.3 0 .8-.5 1.7-.9 2.6-1.3.5-.2 1-.5 1.5-.8.4-.2.7-.5.9-.9.2-.5.3-1.1.3-1.7 0-.1 0-.1-.1-.1-.3 0-.6.1-.9.1-1 .2-1.8.1-2.7-.4z"/><path d="M11.7 12v-.1c0-.1.1-.1.1-.2h.2c.1 0 .1.1.2.1v.1c0 .1 0 .1-.1.1-.1.1-.2.1-.3.1-.1 0-.2-.1-.2-.1.1.1.1.1.1 0zm.2.1c0-.1 0-.1 0 0v-.2h.2V12.2h.1s.1-.1.1-.2v-.1c0-.1-.1-.2-.2-.2h-.2c-.1 0-.1 0-.1.1-.1.1-.1.1-.1.2s0 .1.1.1c0 .1.1.1.1 0 0 .1 0 .1 0 0z"/></svg>